<svg xmlns="http://www.w3.org/2000/svg" viewBox="0 0 48 40" width="48" height="40">
  <!-- 6x5 logo grid mark: two-tone green, split per column -->
  <rect x="0"  y="0"  width="7" height="7" rx="1.5" fill="#8aba84"/>
  <rect x="8"  y="0"  width="7" height="7" rx="1.5" fill="#8aba84"/>
  <rect x="16" y="0"  width="7" height="7" rx="1.5" fill="#8aba84"/>
  <rect x="24" y="0"  width="7" height="7" rx="1.5" fill="#8aba84"/>
  <rect x="32" y="0"  width="7" height="7" rx="1.5" fill="#3a6e38"/>
  <rect x="40" y="0"  width="7" height="7" rx="1.5" fill="#8aba84"/>

  <rect x="0"  y="8"  width="7" height="7" rx="1.5" fill="#8aba84"/>
  <rect x="8"  y="8"  width="7" height="7" rx="1.5" fill="#8aba84"/>
  <rect x="16" y="8"  width="7" height="7" rx="1.5" fill="#3a6e38"/>
  <rect x="24" y="8"  width="7" height="7" rx="1.5" fill="#8aba84"/>
  <rect x="32" y="8"  width="7" height="7" rx="1.5" fill="#3a6e38"/>
  <rect x="40" y="8"  width="7" height="7" rx="1.5" fill="#8aba84"/>

  <rect x="0"  y="16" width="7" height="7" rx="1.5" fill="#8aba84"/>
  <rect x="8"  y="16" width="7" height="7" rx="1.5" fill="#8aba84"/>
  <rect x="16" y="16" width="7" height="7" rx="1.5" fill="#3a6e38"/>
  <rect x="24" y="16" width="7" height="7" rx="1.5" fill="#8aba84"/>
  <rect x="32" y="16" width="7" height="7" rx="1.5" fill="#3a6e38"/>
  <rect x="40" y="16" width="7" height="7" rx="1.5" fill="#3a6e38"/>

  <rect x="0"  y="24" width="7" height="7" rx="1.5" fill="#3a6e38"/>
  <rect x="8"  y="24" width="7" height="7" rx="1.5" fill="#8aba84"/>
  <rect x="16" y="24" width="7" height="7" rx="1.5" fill="#3a6e38"/>
  <rect x="24" y="24" width="7" height="7" rx="1.5" fill="#8aba84"/>
  <rect x="32" y="24" width="7" height="7" rx="1.5" fill="#3a6e38"/>
  <rect x="40" y="24" width="7" height="7" rx="1.5" fill="#3a6e38"/>

  <rect x="0"  y="32" width="7" height="7" rx="1.5" fill="#3a6e38"/>
  <rect x="8"  y="32" width="7" height="7" rx="1.5" fill="#3a6e38"/>
  <rect x="16" y="32" width="7" height="7" rx="1.5" fill="#3a6e38"/>
  <rect x="24" y="32" width="7" height="7" rx="1.5" fill="#3a6e38"/>
  <rect x="32" y="32" width="7" height="7" rx="1.5" fill="#3a6e38"/>
  <rect x="40" y="32" width="7" height="7" rx="1.5" fill="#3a6e38"/>
</svg>
